<svg class="marks" width="376" height="187" version="1.1" xmlns="http://www.w3.org/2000/svg" xmlns:xlink="http://www.w3.org/1999/xlink"><g transform="translate(49,0)"><g class="mark-group"><g transform="translate(0,0)"><rect class="background" width="1" height="1" style="fill: none;"></rect><g class="mark-group root"><g transform="translate(0,0)"><rect class="background" width="232" height="166" style="fill: none;"></rect><g class="mark-group"><g transform="translate(0,166)"><rect class="background" width="0" height="0" style="pointer-events: none; fill: none;"></rect><g class="mark-rule" style="pointer-events: none;"></g><g class="mark-rule" style="pointer-events: none;"><line transform="translate(29.5,0)" x2="0" y2="0" style="fill: none; stroke: #000; stroke-width: 1; opacity: 1;"></line><line transform="translate(87.5,0)" x2="0" y2="0" style="fill: none; stroke: #000; stroke-width: 1; opacity: 1;"></line><line transform="translate(145.5,0)" x2="0" y2="0" style="fill: none; stroke: #000; stroke-width: 1; opacity: 1;"></line><line transform="translate(203.5,0)" x2="0" y2="0" style="fill: none; stroke: #000; stroke-width: 1; opacity: 1;"></line></g><g class="mark-rule" style="pointer-events: none;"></g><g class="mark-text"><text text-anchor="middle" transform="translate(29.5,13)" style="font: 11px sans-serif; fill: #000; opacity: 1;">orig.</text><text text-anchor="middle" transform="translate(87.5,13)" style="font: 11px sans-serif; fill: #000; opacity: 1;">demos+g.c.</text><text text-anchor="middle" transform="translate(145.5,13)" style="font: 11px sans-serif; fill: #000; opacity: 1;">+denoise</text><text text-anchor="middle" transform="translate(203.5,13)" style="font: 11px sans-serif; fill: #000; opacity: 1;">all off</text></g><g class="mark-path" style="pointer-events: none;"><path transform="translate(0.5,0.5)" d="M0,0V0H232V0" style="fill: none; stroke: #000; stroke-width: 0;"></path></g><g class="mark-text"></g></g></g><g class="mark-group y-axes"><g transform="translate(0,8)"><rect class="background" width="232" height="150" style="fill: none;"></rect><g class="mark-group"><g transform="translate(0,0)"><rect class="background" width="0" height="0" style="pointer-events: none; fill: none;"></rect><g class="mark-rule" style="pointer-events: none;"></g><g class="mark-rule" style="pointer-events: none;"><line transform="translate(-6,150.5)" x2="6" y2="0" style="fill: none; stroke: #000; stroke-width: 1; opacity: 1;"></line><line transform="translate(-6,138.5)" x2="6" y2="0" style="fill: none; stroke: #000; stroke-width: 1; opacity: 1;"></line><line transform="translate(-6,127.5)" x2="6" y2="0" style="fill: none; stroke: #000; stroke-width: 1; opacity: 1;"></line><line transform="translate(-6,115.5)" x2="6" y2="0" style="fill: none; stroke: #000; stroke-width: 1; opacity: 1;"></line><line transform="translate(-6,104.5)" x2="6" y2="0" style="fill: none; stroke: #000; stroke-width: 1; opacity: 1;"></line><line transform="translate(-6,92.5)" x2="6" y2="0" style="fill: none; stroke: #000; stroke-width: 1; opacity: 1;"></line><line transform="translate(-6,81.5)" x2="6" y2="0" style="fill: none; stroke: #000; stroke-width: 1; opacity: 1;"></line><line transform="translate(-6,69.5)" x2="6" y2="0" style="fill: none; stroke: #000; stroke-width: 1; opacity: 1;"></line><line transform="translate(-6,58.5)" x2="6" y2="0" style="fill: none; stroke: #000; stroke-width: 1; opacity: 1;"></line><line transform="translate(-6,46.5)" x2="6" y2="0" style="fill: none; stroke: #000; stroke-width: 1; opacity: 1;"></line><line transform="translate(-6,35.5)" x2="6" y2="0" style="fill: none; stroke: #000; stroke-width: 1; opacity: 1;"></line><line transform="translate(-6,23.5)" x2="6" y2="0" style="fill: none; stroke: #000; stroke-width: 1; opacity: 1;"></line><line transform="translate(-6,12.5)" x2="6" y2="0" style="fill: none; stroke: #000; stroke-width: 1; opacity: 1;"></line><line transform="translate(-6,0.5)" x2="6" y2="0" style="fill: none; stroke: #000; stroke-width: 1; opacity: 1;"></line></g><g class="mark-rule" style="pointer-events: none;"></g><g class="mark-text"><text text-anchor="end" transform="translate(-9,153.5)" style="font: 11px sans-serif; fill: #000; opacity: 1;">0.0</text><text text-anchor="end" transform="translate(-9,141.5)" style="font: 11px sans-serif; fill: #000; opacity: 1;">0.2</text><text text-anchor="end" transform="translate(-9,130.5)" style="font: 11px sans-serif; fill: #000; opacity: 1;">0.4</text><text text-anchor="end" transform="translate(-9,118.5)" style="font: 11px sans-serif; fill: #000; opacity: 1;">0.6</text><text text-anchor="end" transform="translate(-9,107.5)" style="font: 11px sans-serif; fill: #000; opacity: 1;">0.8</text><text text-anchor="end" transform="translate(-9,95.5)" style="font: 11px sans-serif; fill: #000; opacity: 1;">1.0</text><text text-anchor="end" transform="translate(-9,84.5)" style="font: 11px sans-serif; fill: #000; opacity: 1;">1.2</text><text text-anchor="end" transform="translate(-9,72.5)" style="font: 11px sans-serif; fill: #000; opacity: 1;">1.4</text><text text-anchor="end" transform="translate(-9,61.5)" style="font: 11px sans-serif; fill: #000; opacity: 1;">1.6</text><text text-anchor="end" transform="translate(-9,49.5)" style="font: 11px sans-serif; fill: #000; opacity: 1;">1.8</text><text text-anchor="end" transform="translate(-9,38.5)" style="font: 11px sans-serif; fill: #000; opacity: 1;">2.0</text><text text-anchor="end" transform="translate(-9,26.5)" style="font: 11px sans-serif; fill: #000; opacity: 1;">2.2</text><text text-anchor="end" transform="translate(-9,15.5)" style="font: 11px sans-serif; fill: #000; opacity: 1;">2.4</text><text text-anchor="end" transform="translate(-9,3.5)" style="font: 11px sans-serif; fill: #000; opacity: 1;">2.6</text></g><g class="mark-path" style="pointer-events: none;"><path transform="translate(0.5,0.5)" d="M-6,0H0V150H-6" style="fill: none; stroke: #000; stroke-width: 1;"></path></g><g class="mark-text"><text text-anchor="middle" transform="translate(-37,75) rotate(-90) translate(0,3)" style="font: bold 11px sans-serif; fill: #000;">normalized error</text></g></g></g></g></g><g class="mark-group cell"><g transform="translate(2,8)"><rect class="background" width="54" height="150" style="fill: none; stroke: #ccc; stroke-width: 0;"></rect><g class="mark-group"><g transform="translate(0,0)"><rect class="background" width="0" height="0" style="pointer-events: none; fill: none;"></rect><g class="mark-rule" style="pointer-events: none;"><line transform="translate(0,150.5)" x2="54" y2="0" style="fill: none; stroke: #000; stroke-opacity: 0.15; opacity: 1;"></line><line transform="translate(0,138.5)" x2="54" y2="0" style="fill: none; stroke: #000; stroke-opacity: 0.15; opacity: 1;"></line><line transform="translate(0,127.5)" x2="54" y2="0" style="fill: none; stroke: #000; stroke-opacity: 0.15; opacity: 1;"></line><line transform="translate(0,115.5)" x2="54" y2="0" style="fill: none; stroke: #000; stroke-opacity: 0.15; opacity: 1;"></line><line transform="translate(0,104.5)" x2="54" y2="0" style="fill: none; stroke: #000; stroke-opacity: 0.15; opacity: 1;"></line><line transform="translate(0,92.5)" x2="54" y2="0" style="fill: none; stroke: #000; stroke-opacity: 0.15; opacity: 1;"></line><line transform="translate(0,81.5)" x2="54" y2="0" style="fill: none; stroke: #000; stroke-opacity: 0.15; opacity: 1;"></line><line transform="translate(0,69.5)" x2="54" y2="0" style="fill: none; stroke: #000; stroke-opacity: 0.15; opacity: 1;"></line><line transform="translate(0,58.5)" x2="54" y2="0" style="fill: none; stroke: #000; stroke-opacity: 0.15; opacity: 1;"></line><line transform="translate(0,46.5)" x2="54" y2="0" style="fill: none; stroke: #000; stroke-opacity: 0.15; opacity: 1;"></line><line transform="translate(0,35.5)" x2="54" y2="0" style="fill: none; stroke: #000; stroke-opacity: 0.15; opacity: 1;"></line><line transform="translate(0,23.5)" x2="54" y2="0" style="fill: none; stroke: #000; stroke-opacity: 0.15; opacity: 1;"></line><line transform="translate(0,12.5)" x2="54" y2="0" style="fill: none; stroke: #000; stroke-opacity: 0.15; opacity: 1;"></line><line transform="translate(0,0.5)" x2="54" y2="0" style="fill: none; stroke: #000; stroke-opacity: 0.15; opacity: 1;"></line></g><g class="mark-rule" style="pointer-events: none;"><line transform="translate(0,150.5)" x2="0" y2="0" style="fill: none; stroke: #000; stroke-width: 1; opacity: 1;"></line><line transform="translate(0,138.5)" x2="0" y2="0" style="fill: none; stroke: #000; stroke-width: 1; opacity: 1;"></line><line transform="translate(0,127.5)" x2="0" y2="0" style="fill: none; stroke: #000; stroke-width: 1; opacity: 1;"></line><line transform="translate(0,115.5)" x2="0" y2="0" style="fill: none; stroke: #000; stroke-width: 1; opacity: 1;"></line><line transform="translate(0,104.5)" x2="0" y2="0" style="fill: none; stroke: #000; stroke-width: 1; opacity: 1;"></line><line transform="translate(0,92.5)" x2="0" y2="0" style="fill: none; stroke: #000; stroke-width: 1; opacity: 1;"></line><line transform="translate(0,81.5)" x2="0" y2="0" style="fill: none; stroke: #000; stroke-width: 1; opacity: 1;"></line><line transform="translate(0,69.5)" x2="0" y2="0" style="fill: none; stroke: #000; stroke-width: 1; opacity: 1;"></line><line transform="translate(0,58.5)" x2="0" y2="0" style="fill: none; stroke: #000; stroke-width: 1; opacity: 1;"></line><line transform="translate(0,46.5)" x2="0" y2="0" style="fill: none; stroke: #000; stroke-width: 1; opacity: 1;"></line><line transform="translate(0,35.5)" x2="0" y2="0" style="fill: none; stroke: #000; stroke-width: 1; opacity: 1;"></line><line transform="translate(0,23.5)" x2="0" y2="0" style="fill: none; stroke: #000; stroke-width: 1; opacity: 1;"></line><line transform="translate(0,12.5)" x2="0" y2="0" style="fill: none; stroke: #000; stroke-width: 1; opacity: 1;"></line><line transform="translate(0,0.5)" x2="0" y2="0" style="fill: none; stroke: #000; stroke-width: 1; opacity: 1;"></line></g><g class="mark-rule" style="pointer-events: none;"></g><g class="mark-text"><text text-anchor="end" transform="translate(-3,153.5)" style="font: 11px sans-serif; fill: #000; opacity: 1;"></text><text text-anchor="end" transform="translate(-3,141.5)" style="font: 11px sans-serif; fill: #000; opacity: 1;"></text><text text-anchor="end" transform="translate(-3,130.5)" style="font: 11px sans-serif; fill: #000; opacity: 1;"></text><text text-anchor="end" transform="translate(-3,118.5)" style="font: 11px sans-serif; fill: #000; opacity: 1;"></text><text text-anchor="end" transform="translate(-3,107.5)" style="font: 11px sans-serif; fill: #000; opacity: 1;"></text><text text-anchor="end" transform="translate(-3,95.5)" style="font: 11px sans-serif; fill: #000; opacity: 1;"></text><text text-anchor="end" transform="translate(-3,84.5)" style="font: 11px sans-serif; fill: #000; opacity: 1;"></text><text text-anchor="end" transform="translate(-3,72.5)" style="font: 11px sans-serif; fill: #000; opacity: 1;"></text><text text-anchor="end" transform="translate(-3,61.5)" style="font: 11px sans-serif; fill: #000; opacity: 1;"></text><text text-anchor="end" transform="translate(-3,49.5)" style="font: 11px sans-serif; fill: #000; opacity: 1;"></text><text text-anchor="end" transform="translate(-3,38.5)" style="font: 11px sans-serif; fill: #000; opacity: 1;"></text><text text-anchor="end" transform="translate(-3,26.5)" style="font: 11px sans-serif; fill: #000; opacity: 1;"></text><text text-anchor="end" transform="translate(-3,15.5)" style="font: 11px sans-serif; fill: #000; opacity: 1;"></text><text text-anchor="end" transform="translate(-3,3.5)" style="font: 11px sans-serif; fill: #000; opacity: 1;"></text></g><g class="mark-path" style="pointer-events: none;"><path transform="translate(0.5,0.5)" d="M0,0H0V150H0" style="fill: none; stroke: transparent; stroke-width: 1;"></path></g><g class="mark-text"></g></g></g><g class="mark-rect child_marks"><rect transform="translate(3.5,92)" width="5" height="58" style="fill: #1f77b4; opacity: 0.7;"></rect><rect transform="translate(9.5,92)" width="5" height="58" style="fill: #ff7f0e; opacity: 0.7;"></rect><rect transform="translate(15.5,92)" width="5" height="58" style="fill: #2ca02c; opacity: 0.7;"></rect><rect transform="translate(33.5,92)" width="5" height="58" style="fill: #8c564b; opacity: 0.7;"></rect><rect transform="translate(39.5,92)" width="5" height="58" style="fill: #e377c2; opacity: 0.7;"></rect><rect transform="translate(45.5,92)" width="5" height="58" style="fill: #7f7f7f; opacity: 0.7;"></rect><rect transform="translate(21.5,92)" width="5" height="58" style="fill: #d62728; opacity: 0.7;"></rect><rect transform="translate(27.5,92)" width="5" height="58" style="fill: #9467bd; opacity: 0.7;"></rect></g></g><g transform="translate(176,8)"><rect class="background" width="54" height="150" style="fill: none; stroke: #ccc; stroke-width: 0;"></rect><g class="mark-group"><g transform="translate(0,0)"><rect class="background" width="0" height="0" style="pointer-events: none; fill: none;"></rect><g class="mark-rule" style="pointer-events: none;"><line transform="translate(0,150.5)" x2="54" y2="0" style="fill: none; stroke: #000; stroke-opacity: 0.15; opacity: 1;"></line><line transform="translate(0,138.5)" x2="54" y2="0" style="fill: none; stroke: #000; stroke-opacity: 0.15; opacity: 1;"></line><line transform="translate(0,127.5)" x2="54" y2="0" style="fill: none; stroke: #000; stroke-opacity: 0.15; opacity: 1;"></line><line transform="translate(0,115.5)" x2="54" y2="0" style="fill: none; stroke: #000; stroke-opacity: 0.15; opacity: 1;"></line><line transform="translate(0,104.5)" x2="54" y2="0" style="fill: none; stroke: #000; stroke-opacity: 0.15; opacity: 1;"></line><line transform="translate(0,92.5)" x2="54" y2="0" style="fill: none; stroke: #000; stroke-opacity: 0.15; opacity: 1;"></line><line transform="translate(0,81.5)" x2="54" y2="0" style="fill: none; stroke: #000; stroke-opacity: 0.15; opacity: 1;"></line><line transform="translate(0,69.5)" x2="54" y2="0" style="fill: none; stroke: #000; stroke-opacity: 0.15; opacity: 1;"></line><line transform="translate(0,58.5)" x2="54" y2="0" style="fill: none; stroke: #000; stroke-opacity: 0.15; opacity: 1;"></line><line transform="translate(0,46.5)" x2="54" y2="0" style="fill: none; stroke: #000; stroke-opacity: 0.15; opacity: 1;"></line><line transform="translate(0,35.5)" x2="54" y2="0" style="fill: none; stroke: #000; stroke-opacity: 0.15; opacity: 1;"></line><line transform="translate(0,23.5)" x2="54" y2="0" style="fill: none; stroke: #000; stroke-opacity: 0.15; opacity: 1;"></line><line transform="translate(0,12.5)" x2="54" y2="0" style="fill: none; stroke: #000; stroke-opacity: 0.15; opacity: 1;"></line><line transform="translate(0,0.5)" x2="54" y2="0" style="fill: none; stroke: #000; stroke-opacity: 0.15; opacity: 1;"></line></g><g class="mark-rule" style="pointer-events: none;"><line transform="translate(0,150.5)" x2="0" y2="0" style="fill: none; stroke: #000; stroke-width: 1; opacity: 1;"></line><line transform="translate(0,138.5)" x2="0" y2="0" style="fill: none; stroke: #000; stroke-width: 1; opacity: 1;"></line><line transform="translate(0,127.5)" x2="0" y2="0" style="fill: none; stroke: #000; stroke-width: 1; opacity: 1;"></line><line transform="translate(0,115.5)" x2="0" y2="0" style="fill: none; stroke: #000; stroke-width: 1; opacity: 1;"></line><line transform="translate(0,104.5)" x2="0" y2="0" style="fill: none; stroke: #000; stroke-width: 1; opacity: 1;"></line><line transform="translate(0,92.5)" x2="0" y2="0" style="fill: none; stroke: #000; stroke-width: 1; opacity: 1;"></line><line transform="translate(0,81.5)" x2="0" y2="0" style="fill: none; stroke: #000; stroke-width: 1; opacity: 1;"></line><line transform="translate(0,69.5)" x2="0" y2="0" style="fill: none; stroke: #000; stroke-width: 1; opacity: 1;"></line><line transform="translate(0,58.5)" x2="0" y2="0" style="fill: none; stroke: #000; stroke-width: 1; opacity: 1;"></line><line transform="translate(0,46.5)" x2="0" y2="0" style="fill: none; stroke: #000; stroke-width: 1; opacity: 1;"></line><line transform="translate(0,35.5)" x2="0" y2="0" style="fill: none; stroke: #000; stroke-width: 1; opacity: 1;"></line><line transform="translate(0,23.5)" x2="0" y2="0" style="fill: none; stroke: #000; stroke-width: 1; opacity: 1;"></line><line transform="translate(0,12.5)" x2="0" y2="0" style="fill: none; stroke: #000; stroke-width: 1; opacity: 1;"></line><line transform="translate(0,0.5)" x2="0" y2="0" style="fill: none; stroke: #000; stroke-width: 1; opacity: 1;"></line></g><g class="mark-rule" style="pointer-events: none;"></g><g class="mark-text"><text text-anchor="end" transform="translate(-3,153.5)" style="font: 11px sans-serif; fill: #000; opacity: 1;"></text><text text-anchor="end" transform="translate(-3,141.5)" style="font: 11px sans-serif; fill: #000; opacity: 1;"></text><text text-anchor="end" transform="translate(-3,130.5)" style="font: 11px sans-serif; fill: #000; opacity: 1;"></text><text text-anchor="end" transform="translate(-3,118.5)" style="font: 11px sans-serif; fill: #000; opacity: 1;"></text><text text-anchor="end" transform="translate(-3,107.5)" style="font: 11px sans-serif; fill: #000; opacity: 1;"></text><text text-anchor="end" transform="translate(-3,95.5)" style="font: 11px sans-serif; fill: #000; opacity: 1;"></text><text text-anchor="end" transform="translate(-3,84.5)" style="font: 11px sans-serif; fill: #000; opacity: 1;"></text><text text-anchor="end" transform="translate(-3,72.5)" style="font: 11px sans-serif; fill: #000; opacity: 1;"></text><text text-anchor="end" transform="translate(-3,61.5)" style="font: 11px sans-serif; fill: #000; opacity: 1;"></text><text text-anchor="end" transform="translate(-3,49.5)" style="font: 11px sans-serif; fill: #000; opacity: 1;"></text><text text-anchor="end" transform="translate(-3,38.5)" style="font: 11px sans-serif; fill: #000; opacity: 1;"></text><text text-anchor="end" transform="translate(-3,26.5)" style="font: 11px sans-serif; fill: #000; opacity: 1;"></text><text text-anchor="end" transform="translate(-3,15.5)" style="font: 11px sans-serif; fill: #000; opacity: 1;"></text><text text-anchor="end" transform="translate(-3,3.5)" style="font: 11px sans-serif; fill: #000; opacity: 1;"></text></g><g class="mark-path" style="pointer-events: none;"><path transform="translate(0.5,0.5)" d="M0,0H0V150H0" style="fill: none; stroke: transparent; stroke-width: 1;"></path></g><g class="mark-text"></g></g></g><g class="mark-rect child_marks"><rect transform="translate(3.5,68)" width="5" height="82" style="fill: #1f77b4; opacity: 0.7;"></rect><rect transform="translate(9.5,72)" width="5" height="78" style="fill: #ff7f0e; opacity: 0.7;"></rect><rect transform="translate(15.5,68)" width="5" height="82" style="fill: #2ca02c; opacity: 0.7;"></rect><rect transform="translate(33.5,19)" width="5" height="131" style="fill: #8c564b; opacity: 0.7;"></rect><rect transform="translate(39.5,24)" width="5" height="126" style="fill: #e377c2; opacity: 0.7;"></rect><rect transform="translate(21.5,55)" width="5" height="95" style="fill: #d62728; opacity: 0.7;"></rect><rect transform="translate(27.5,87)" width="5" height="63" style="fill: #9467bd; opacity: 0.7;"></rect></g></g><g transform="translate(118,8)"><rect class="background" width="54" height="150" style="fill: none; stroke: #ccc; stroke-width: 0;"></rect><g class="mark-group"><g transform="translate(0,0)"><rect class="background" width="0" height="0" style="pointer-events: none; fill: none;"></rect><g class="mark-rule" style="pointer-events: none;"><line transform="translate(0,150.5)" x2="54" y2="0" style="fill: none; stroke: #000; stroke-opacity: 0.15; opacity: 1;"></line><line transform="translate(0,138.5)" x2="54" y2="0" style="fill: none; stroke: #000; stroke-opacity: 0.15; opacity: 1;"></line><line transform="translate(0,127.5)" x2="54" y2="0" style="fill: none; stroke: #000; stroke-opacity: 0.15; opacity: 1;"></line><line transform="translate(0,115.5)" x2="54" y2="0" style="fill: none; stroke: #000; stroke-opacity: 0.15; opacity: 1;"></line><line transform="translate(0,104.5)" x2="54" y2="0" style="fill: none; stroke: #000; stroke-opacity: 0.15; opacity: 1;"></line><line transform="translate(0,92.5)" x2="54" y2="0" style="fill: none; stroke: #000; stroke-opacity: 0.15; opacity: 1;"></line><line transform="translate(0,81.5)" x2="54" y2="0" style="fill: none; stroke: #000; stroke-opacity: 0.15; opacity: 1;"></line><line transform="translate(0,69.5)" x2="54" y2="0" style="fill: none; stroke: #000; stroke-opacity: 0.15; opacity: 1;"></line><line transform="translate(0,58.5)" x2="54" y2="0" style="fill: none; stroke: #000; stroke-opacity: 0.15; opacity: 1;"></line><line transform="translate(0,46.5)" x2="54" y2="0" style="fill: none; stroke: #000; stroke-opacity: 0.15; opacity: 1;"></line><line transform="translate(0,35.5)" x2="54" y2="0" style="fill: none; stroke: #000; stroke-opacity: 0.15; opacity: 1;"></line><line transform="translate(0,23.5)" x2="54" y2="0" style="fill: none; stroke: #000; stroke-opacity: 0.15; opacity: 1;"></line><line transform="translate(0,12.5)" x2="54" y2="0" style="fill: none; stroke: #000; stroke-opacity: 0.15; opacity: 1;"></line><line transform="translate(0,0.5)" x2="54" y2="0" style="fill: none; stroke: #000; stroke-opacity: 0.15; opacity: 1;"></line></g><g class="mark-rule" style="pointer-events: none;"><line transform="translate(0,150.5)" x2="0" y2="0" style="fill: none; stroke: #000; stroke-width: 1; opacity: 1;"></line><line transform="translate(0,138.5)" x2="0" y2="0" style="fill: none; stroke: #000; stroke-width: 1; opacity: 1;"></line><line transform="translate(0,127.5)" x2="0" y2="0" style="fill: none; stroke: #000; stroke-width: 1; opacity: 1;"></line><line transform="translate(0,115.5)" x2="0" y2="0" style="fill: none; stroke: #000; stroke-width: 1; opacity: 1;"></line><line transform="translate(0,104.5)" x2="0" y2="0" style="fill: none; stroke: #000; stroke-width: 1; opacity: 1;"></line><line transform="translate(0,92.5)" x2="0" y2="0" style="fill: none; stroke: #000; stroke-width: 1; opacity: 1;"></line><line transform="translate(0,81.5)" x2="0" y2="0" style="fill: none; stroke: #000; stroke-width: 1; opacity: 1;"></line><line transform="translate(0,69.5)" x2="0" y2="0" style="fill: none; stroke: #000; stroke-width: 1; opacity: 1;"></line><line transform="translate(0,58.5)" x2="0" y2="0" style="fill: none; stroke: #000; stroke-width: 1; opacity: 1;"></line><line transform="translate(0,46.5)" x2="0" y2="0" style="fill: none; stroke: #000; stroke-width: 1; opacity: 1;"></line><line transform="translate(0,35.5)" x2="0" y2="0" style="fill: none; stroke: #000; stroke-width: 1; opacity: 1;"></line><line transform="translate(0,23.5)" x2="0" y2="0" style="fill: none; stroke: #000; stroke-width: 1; opacity: 1;"></line><line transform="translate(0,12.5)" x2="0" y2="0" style="fill: none; stroke: #000; stroke-width: 1; opacity: 1;"></line><line transform="translate(0,0.5)" x2="0" y2="0" style="fill: none; stroke: #000; stroke-width: 1; opacity: 1;"></line></g><g class="mark-rule" style="pointer-events: none;"></g><g class="mark-text"><text text-anchor="end" transform="translate(-3,153.5)" style="font: 11px sans-serif; fill: #000; opacity: 1;"></text><text text-anchor="end" transform="translate(-3,141.5)" style="font: 11px sans-serif; fill: #000; opacity: 1;"></text><text text-anchor="end" transform="translate(-3,130.5)" style="font: 11px sans-serif; fill: #000; opacity: 1;"></text><text text-anchor="end" transform="translate(-3,118.5)" style="font: 11px sans-serif; fill: #000; opacity: 1;"></text><text text-anchor="end" transform="translate(-3,107.5)" style="font: 11px sans-serif; fill: #000; opacity: 1;"></text><text text-anchor="end" transform="translate(-3,95.5)" style="font: 11px sans-serif; fill: #000; opacity: 1;"></text><text text-anchor="end" transform="translate(-3,84.5)" style="font: 11px sans-serif; fill: #000; opacity: 1;"></text><text text-anchor="end" transform="translate(-3,72.5)" style="font: 11px sans-serif; fill: #000; opacity: 1;"></text><text text-anchor="end" transform="translate(-3,61.5)" style="font: 11px sans-serif; fill: #000; opacity: 1;"></text><text text-anchor="end" transform="translate(-3,49.5)" style="font: 11px sans-serif; fill: #000; opacity: 1;"></text><text text-anchor="end" transform="translate(-3,38.5)" style="font: 11px sans-serif; fill: #000; opacity: 1;"></text><text text-anchor="end" transform="translate(-3,26.5)" style="font: 11px sans-serif; fill: #000; opacity: 1;"></text><text text-anchor="end" transform="translate(-3,15.5)" style="font: 11px sans-serif; fill: #000; opacity: 1;"></text><text text-anchor="end" transform="translate(-3,3.5)" style="font: 11px sans-serif; fill: #000; opacity: 1;"></text></g><g class="mark-path" style="pointer-events: none;"><path transform="translate(0.5,0.5)" d="M0,0H0V150H0" style="fill: none; stroke: transparent; stroke-width: 1;"></path></g><g class="mark-text"></g></g></g><g class="mark-rect child_marks"><rect transform="translate(3.5,92)" width="5" height="58" style="fill: #1f77b4; opacity: 0.7;"></rect><rect transform="translate(9.5,91)" width="5" height="59" style="fill: #ff7f0e; opacity: 0.7;"></rect><rect transform="translate(15.5,88)" width="5" height="62" style="fill: #2ca02c; opacity: 0.7;"></rect><rect transform="translate(33.5,87)" width="5" height="63" style="fill: #8c564b; opacity: 0.7;"></rect><rect transform="translate(39.5,92)" width="5" height="58" style="fill: #e377c2; opacity: 0.7;"></rect><rect transform="translate(45.5,88)" width="5" height="62" style="fill: #7f7f7f; opacity: 0.7;"></rect><rect transform="translate(21.5,89)" width="5" height="61" style="fill: #d62728; opacity: 0.7;"></rect><rect transform="translate(27.5,91)" width="5" height="59" style="fill: #9467bd; opacity: 0.7;"></rect></g></g><g transform="translate(60,8)"><rect class="background" width="54" height="150" style="fill: none; stroke: #ccc; stroke-width: 0;"></rect><g class="mark-group"><g transform="translate(0,0)"><rect class="background" width="0" height="0" style="pointer-events: none; fill: none;"></rect><g class="mark-rule" style="pointer-events: none;"><line transform="translate(0,150.5)" x2="54" y2="0" style="fill: none; stroke: #000; stroke-opacity: 0.15; opacity: 1;"></line><line transform="translate(0,138.5)" x2="54" y2="0" style="fill: none; stroke: #000; stroke-opacity: 0.15; opacity: 1;"></line><line transform="translate(0,127.5)" x2="54" y2="0" style="fill: none; stroke: #000; stroke-opacity: 0.15; opacity: 1;"></line><line transform="translate(0,115.5)" x2="54" y2="0" style="fill: none; stroke: #000; stroke-opacity: 0.15; opacity: 1;"></line><line transform="translate(0,104.5)" x2="54" y2="0" style="fill: none; stroke: #000; stroke-opacity: 0.15; opacity: 1;"></line><line transform="translate(0,92.5)" x2="54" y2="0" style="fill: none; stroke: #000; stroke-opacity: 0.15; opacity: 1;"></line><line transform="translate(0,81.5)" x2="54" y2="0" style="fill: none; stroke: #000; stroke-opacity: 0.15; opacity: 1;"></line><line transform="translate(0,69.5)" x2="54" y2="0" style="fill: none; stroke: #000; stroke-opacity: 0.15; opacity: 1;"></line><line transform="translate(0,58.5)" x2="54" y2="0" style="fill: none; stroke: #000; stroke-opacity: 0.15; opacity: 1;"></line><line transform="translate(0,46.5)" x2="54" y2="0" style="fill: none; stroke: #000; stroke-opacity: 0.15; opacity: 1;"></line><line transform="translate(0,35.5)" x2="54" y2="0" style="fill: none; stroke: #000; stroke-opacity: 0.15; opacity: 1;"></line><line transform="translate(0,23.5)" x2="54" y2="0" style="fill: none; stroke: #000; stroke-opacity: 0.15; opacity: 1;"></line><line transform="translate(0,12.5)" x2="54" y2="0" style="fill: none; stroke: #000; stroke-opacity: 0.15; opacity: 1;"></line><line transform="translate(0,0.5)" x2="54" y2="0" style="fill: none; stroke: #000; stroke-opacity: 0.15; opacity: 1;"></line></g><g class="mark-rule" style="pointer-events: none;"><line transform="translate(0,150.5)" x2="0" y2="0" style="fill: none; stroke: #000; stroke-width: 1; opacity: 1;"></line><line transform="translate(0,138.5)" x2="0" y2="0" style="fill: none; stroke: #000; stroke-width: 1; opacity: 1;"></line><line transform="translate(0,127.5)" x2="0" y2="0" style="fill: none; stroke: #000; stroke-width: 1; opacity: 1;"></line><line transform="translate(0,115.5)" x2="0" y2="0" style="fill: none; stroke: #000; stroke-width: 1; opacity: 1;"></line><line transform="translate(0,104.5)" x2="0" y2="0" style="fill: none; stroke: #000; stroke-width: 1; opacity: 1;"></line><line transform="translate(0,92.5)" x2="0" y2="0" style="fill: none; stroke: #000; stroke-width: 1; opacity: 1;"></line><line transform="translate(0,81.5)" x2="0" y2="0" style="fill: none; stroke: #000; stroke-width: 1; opacity: 1;"></line><line transform="translate(0,69.5)" x2="0" y2="0" style="fill: none; stroke: #000; stroke-width: 1; opacity: 1;"></line><line transform="translate(0,58.5)" x2="0" y2="0" style="fill: none; stroke: #000; stroke-width: 1; opacity: 1;"></line><line transform="translate(0,46.5)" x2="0" y2="0" style="fill: none; stroke: #000; stroke-width: 1; opacity: 1;"></line><line transform="translate(0,35.5)" x2="0" y2="0" style="fill: none; stroke: #000; stroke-width: 1; opacity: 1;"></line><line transform="translate(0,23.5)" x2="0" y2="0" style="fill: none; stroke: #000; stroke-width: 1; opacity: 1;"></line><line transform="translate(0,12.5)" x2="0" y2="0" style="fill: none; stroke: #000; stroke-width: 1; opacity: 1;"></line><line transform="translate(0,0.5)" x2="0" y2="0" style="fill: none; stroke: #000; stroke-width: 1; opacity: 1;"></line></g><g class="mark-rule" style="pointer-events: none;"></g><g class="mark-text"><text text-anchor="end" transform="translate(-3,153.5)" style="font: 11px sans-serif; fill: #000; opacity: 1;"></text><text text-anchor="end" transform="translate(-3,141.5)" style="font: 11px sans-serif; fill: #000; opacity: 1;"></text><text text-anchor="end" transform="translate(-3,130.5)" style="font: 11px sans-serif; fill: #000; opacity: 1;"></text><text text-anchor="end" transform="translate(-3,118.5)" style="font: 11px sans-serif; fill: #000; opacity: 1;"></text><text text-anchor="end" transform="translate(-3,107.5)" style="font: 11px sans-serif; fill: #000; opacity: 1;"></text><text text-anchor="end" transform="translate(-3,95.5)" style="font: 11px sans-serif; fill: #000; opacity: 1;"></text><text text-anchor="end" transform="translate(-3,84.5)" style="font: 11px sans-serif; fill: #000; opacity: 1;"></text><text text-anchor="end" transform="translate(-3,72.5)" style="font: 11px sans-serif; fill: #000; opacity: 1;"></text><text text-anchor="end" transform="translate(-3,61.5)" style="font: 11px sans-serif; fill: #000; opacity: 1;"></text><text text-anchor="end" transform="translate(-3,49.5)" style="font: 11px sans-serif; fill: #000; opacity: 1;"></text><text text-anchor="end" transform="translate(-3,38.5)" style="font: 11px sans-serif; fill: #000; opacity: 1;"></text><text text-anchor="end" transform="translate(-3,26.5)" style="font: 11px sans-serif; fill: #000; opacity: 1;"></text><text text-anchor="end" transform="translate(-3,15.5)" style="font: 11px sans-serif; fill: #000; opacity: 1;"></text><text text-anchor="end" transform="translate(-3,3.5)" style="font: 11px sans-serif; fill: #000; opacity: 1;"></text></g><g class="mark-path" style="pointer-events: none;"><path transform="translate(0.5,0.5)" d="M0,0H0V150H0" style="fill: none; stroke: transparent; stroke-width: 1;"></path></g><g class="mark-text"></g></g></g><g class="mark-rect child_marks"><rect transform="translate(3.5,91)" width="5" height="59" style="fill: #1f77b4; opacity: 0.7;"></rect><rect transform="translate(9.5,87)" width="5" height="63" style="fill: #ff7f0e; opacity: 0.7;"></rect><rect transform="translate(15.5,84)" width="5" height="66" style="fill: #2ca02c; opacity: 0.7;"></rect><rect transform="translate(33.5,86)" width="5" height="64" style="fill: #8c564b; opacity: 0.7;"></rect><rect transform="translate(39.5,72)" width="5" height="78" style="fill: #e377c2; opacity: 0.7;"></rect><rect transform="translate(45.5,86)" width="5" height="64" style="fill: #7f7f7f; opacity: 0.7;"></rect><rect transform="translate(21.5,92)" width="5" height="58" style="fill: #d62728; opacity: 0.7;"></rect><rect transform="translate(27.5,91)" width="5" height="59" style="fill: #9467bd; opacity: 0.7;"></rect></g></g></g><g class="mark-group"><g transform="translate(252.5,0.5)"><rect class="background" width="69" height="137" style="pointer-events: none; fill: none;"></rect><g class="mark-text" style="pointer-events: none;"><text text-anchor="start" transform="translate(3,13)" style="font: bold 11px sans-serif; fill: #000; opacity: 1;">Application</text></g><g class="mark-symbol" style="pointer-events: none;"><path transform="translate(7.5,23)" d="M0,3.989422804014327A3.989422804014327,3.989422804014327 0 1,1 0,-3.989422804014327A3.989422804014327,3.989422804014327 0 1,1 0,3.989422804014327Z" style="fill: #1f77b4; stroke: #888; stroke-width: 0; opacity: 0.7;"></path><path transform="translate(7.5,38)" d="M0,3.989422804014327A3.989422804014327,3.989422804014327 0 1,1 0,-3.989422804014327A3.989422804014327,3.989422804014327 0 1,1 0,3.989422804014327Z" style="fill: #ff7f0e; stroke: #888; stroke-width: 0; opacity: 0.7;"></path><path transform="translate(7.5,53)" d="M0,3.989422804014327A3.989422804014327,3.989422804014327 0 1,1 0,-3.989422804014327A3.989422804014327,3.989422804014327 0 1,1 0,3.989422804014327Z" style="fill: #2ca02c; stroke: #888; stroke-width: 0; opacity: 0.7;"></path><path transform="translate(7.5,68)" d="M0,3.989422804014327A3.989422804014327,3.989422804014327 0 1,1 0,-3.989422804014327A3.989422804014327,3.989422804014327 0 1,1 0,3.989422804014327Z" style="fill: #d62728; stroke: #888; stroke-width: 0; opacity: 0.7;"></path><path transform="translate(7.5,83)" d="M0,3.989422804014327A3.989422804014327,3.989422804014327 0 1,1 0,-3.989422804014327A3.989422804014327,3.989422804014327 0 1,1 0,3.989422804014327Z" style="fill: #9467bd; stroke: #888; stroke-width: 0; opacity: 0.7;"></path><path transform="translate(7.5,98)" d="M0,3.989422804014327A3.989422804014327,3.989422804014327 0 1,1 0,-3.989422804014327A3.989422804014327,3.989422804014327 0 1,1 0,3.989422804014327Z" style="fill: #8c564b; stroke: #888; stroke-width: 0; opacity: 0.7;"></path><path transform="translate(7.5,113)" d="M0,3.989422804014327A3.989422804014327,3.989422804014327 0 1,1 0,-3.989422804014327A3.989422804014327,3.989422804014327 0 1,1 0,3.989422804014327Z" style="fill: #e377c2; stroke: #888; stroke-width: 0; opacity: 0.7;"></path><path transform="translate(7.5,128)" d="M0,3.989422804014327A3.989422804014327,3.989422804014327 0 1,1 0,-3.989422804014327A3.989422804014327,3.989422804014327 0 1,1 0,3.989422804014327Z" style="fill: #7f7f7f; stroke: #888; stroke-width: 0; opacity: 0.7;"></path></g><g class="mark-text" style="pointer-events: none;"><text text-anchor="start" transform="translate(16,26)" style="font: 10px sans-serif; fill: #000; opacity: 1;">LeNet3</text><text text-anchor="start" transform="translate(16,41)" style="font: 10px sans-serif; fill: #000; opacity: 1;">ResNet20</text><text text-anchor="start" transform="translate(16,56)" style="font: 10px sans-serif; fill: #000; opacity: 1;">ResNet44</text><text text-anchor="start" transform="translate(16,71)" style="font: 10px sans-serif; fill: #000; opacity: 1;">RCNN</text><text text-anchor="start" transform="translate(16,86)" style="font: 10px sans-serif; fill: #000; opacity: 1;">OpenFace</text><text text-anchor="start" transform="translate(16,101)" style="font: 10px sans-serif; fill: #000; opacity: 1;">Farneback</text><text text-anchor="start" transform="translate(16,116)" style="font: 10px sans-serif; fill: #000; opacity: 1;">SGBM</text><text text-anchor="start" transform="translate(16,131)" style="font: 10px sans-serif; fill: #000; opacity: 1;">OpenMVG</text></g></g></g></g></g></g></g></g></svg>