<svg xmlns="http://www.w3.org/2000/svg" xmlns:xlink="http://www.w3.org/1999/xlink" version="1.1" x="0px" y="0px" viewBox="0 0 100 100" style="enable-background:new 0 0 100 100;" xml:space="preserve"><title>43 all</title><g><path d="M84.7,30.4c0-0.5-0.2-1.1-0.6-1.5L58.9,5.2c-0.4-0.3-0.9-0.5-1.4-0.5l0,0H19.2c-2.2,0-4,1.8-4,4v82.8   c0,2.2,1.8,4,4,4h61.5c2.2,0,4-1.8,4-4L84.7,30.4L84.7,30.4z M59.6,11.2l18.1,17.1H61.6c-1.1,0-2-0.9-2-2V11.2z M19.2,91.4V8.6   h36.3v17.7c0,3.3,2.7,6,6,6h19.2v59L19.2,91.4z"></path><rect x="25.3" y="49" width="24.6" height="4"></rect><rect x="25.3" y="63" width="48.4" height="4"></rect><rect x="25.3" y="77.1" width="48.4" height="4"></rect></g></svg>