<svg class="marks" width="603" height="414" viewBox="0 0 603 414" version="1.1" xmlns="http://www.w3.org/2000/svg" xmlns:xlink="http://www.w3.org/1999/xlink"><g transform="translate(92,40)"><g class="mark-group role-frame root"><g transform="translate(0,0)"><path class="background" d="M0,0h0v0h0Z" style="fill: none;"></path><g><g class="mark-group role-row-header row_header"><g transform="translate(-11,0)"><path class="background" d="M0,0h0v250h0Z" style="fill: none;"></path><g><g class="mark-group role-axis"><g transform="translate(0.5,0.5)"><path class="background" d="M0,0h0v0h0Z" style="pointer-events: none; fill: none;"></path><g><g class="mark-rule role-axis-tick" style="pointer-events: none;"><line transform="translate(0,250)" x2="-5" y2="0" style="fill: none; stroke: #888; stroke-width: 1; opacity: 1;"></line><line transform="translate(0,200)" x2="-5" y2="0" style="fill: none; stroke: #888; stroke-width: 1; opacity: 1;"></line><line transform="translate(0,150)" x2="-5" y2="0" style="fill: none; stroke: #888; stroke-width: 1; opacity: 1;"></line><line transform="translate(0,100)" x2="-5" y2="0" style="fill: none; stroke: #888; stroke-width: 1; opacity: 1;"></line><line transform="translate(0,50)" x2="-5" y2="0" style="fill: none; stroke: #888; stroke-width: 1; opacity: 1;"></line><line transform="translate(0,0)" x2="-5" y2="0" style="fill: none; stroke: #888; stroke-width: 1; opacity: 1;"></line></g><g class="mark-text role-axis-label" style="pointer-events: none;"><text text-anchor="end" transform="translate(-7,255)" style="font: 18px sans-serif; fill: #000; opacity: 1;">0.0</text><text text-anchor="end" transform="translate(-7,205)" style="font: 18px sans-serif; fill: #000; opacity: 1;">0.2</text><text text-anchor="end" transform="translate(-7,155)" style="font: 18px sans-serif; fill: #000; opacity: 1;">0.4</text><text text-anchor="end" transform="translate(-7,105)" style="font: 18px sans-serif; fill: #000; opacity: 1;">0.6</text><text text-anchor="end" transform="translate(-7,55)" style="font: 18px sans-serif; fill: #000; opacity: 1;">0.8</text><text text-anchor="end" transform="translate(-7,5)" style="font: 18px sans-serif; fill: #000; opacity: 1;">1.0</text></g><g class="mark-rule role-axis-domain" style="pointer-events: none;"><line transform="translate(0,250)" x2="0" y2="-250" style="fill: none; stroke: #888; stroke-width: 1; opacity: 1;"></line></g><g class="mark-text role-axis-title" style="pointer-events: none;"><text text-anchor="middle" transform="translate(-55,125) rotate(-90) translate(0,-4)" style="font: bold 18px sans-serif; fill: #000; opacity: 1;">normalized energy</text></g></g></g></g></g></g></g><g class="mark-group role-column-header column_header"><g transform="translate(0,-11)"><path class="background" d="M0,0h80v0h-80Z" style="fill: none;"></path><g><g class="mark-text role-title" style="pointer-events: none;"><text text-anchor="middle" transform="translate(40,-13)" style="font: 12px sans-serif; fill: #000; opacity: 1;">AlexNet</text></g></g></g><g transform="translate(92,-11)"><path class="background" d="M0,0h80v0h-80Z" style="fill: none;"></path><g><g class="mark-text role-title" style="pointer-events: none;"><text text-anchor="middle" transform="translate(40,-13)" style="font: 12px sans-serif; fill: #000; opacity: 1;">Faster16</text></g></g></g><g transform="translate(184,-11)"><path class="background" d="M0,0h80v0h-80Z" style="fill: none;"></path><g><g class="mark-text role-title" style="pointer-events: none;"><text text-anchor="middle" transform="translate(40,-13)" style="font: 12px sans-serif; fill: #000; opacity: 1;">FasterM</text></g></g></g></g><g class="mark-group role-column-footer column_footer"><g transform="translate(0,261)"><path class="background" d="M0,0h80v0h-80Z" style="fill: none;"></path><g><g class="mark-group role-axis"><g transform="translate(0.5,0.5)"><path class="background" d="M0,0h0v0h0Z" style="pointer-events: none; fill: none;"></path><g><g class="mark-rule role-axis-tick" style="pointer-events: none;"><line transform="translate(12,0)" x2="0" y2="5" style="fill: none; stroke: #888; stroke-width: 1; opacity: 1;"></line><line transform="translate(39,0)" x2="0" y2="5" style="fill: none; stroke: #888; stroke-width: 1; opacity: 1;"></line><line transform="translate(66,0)" x2="0" y2="5" style="fill: none; stroke: #888; stroke-width: 1; opacity: 1;"></line></g><g class="mark-text role-axis-label" style="pointer-events: none;"><text text-anchor="end" transform="translate(12.333333333333336,7) rotate(270) translate(0,5)" style="font: 18px sans-serif; fill: #000; opacity: 1;">   orig</text><text text-anchor="end" transform="translate(39,7) rotate(270) translate(0,5)" style="font: 18px sans-serif; fill: #000; opacity: 1;"> pred</text><text text-anchor="end" transform="translate(65.66666666666667,7) rotate(270) translate(0,5)" style="font: 18px sans-serif; fill: #000; opacity: 1;">avg</text></g><g class="mark-rule role-axis-domain" style="pointer-events: none;"><line transform="translate(0,0)" x2="80" y2="0" style="fill: none; stroke: #888; stroke-width: 1; opacity: 1;"></line></g></g></g></g></g></g><g transform="translate(92,261)"><path class="background" d="M0,0h80v0h-80Z" style="fill: none;"></path><g><g class="mark-group role-axis"><g transform="translate(0.5,0.5)"><path class="background" d="M0,0h0v0h0Z" style="pointer-events: none; fill: none;"></path><g><g class="mark-rule role-axis-tick" style="pointer-events: none;"><line transform="translate(12,0)" x2="0" y2="5" style="fill: none; stroke: #888; stroke-width: 1; opacity: 1;"></line><line transform="translate(39,0)" x2="0" y2="5" style="fill: none; stroke: #888; stroke-width: 1; opacity: 1;"></line><line transform="translate(66,0)" x2="0" y2="5" style="fill: none; stroke: #888; stroke-width: 1; opacity: 1;"></line></g><g class="mark-text role-axis-label" style="pointer-events: none;"><text text-anchor="end" transform="translate(12.333333333333336,7) rotate(270) translate(0,5)" style="font: 18px sans-serif; fill: #000; opacity: 1;">   orig</text><text text-anchor="end" transform="translate(39,7) rotate(270) translate(0,5)" style="font: 18px sans-serif; fill: #000; opacity: 1;"> pred</text><text text-anchor="end" transform="translate(65.66666666666667,7) rotate(270) translate(0,5)" style="font: 18px sans-serif; fill: #000; opacity: 1;">avg</text></g><g class="mark-rule role-axis-domain" style="pointer-events: none;"><line transform="translate(0,0)" x2="80" y2="0" style="fill: none; stroke: #888; stroke-width: 1; opacity: 1;"></line></g></g></g></g></g></g><g transform="translate(184,261)"><path class="background" d="M0,0h80v0h-80Z" style="fill: none;"></path><g><g class="mark-group role-axis"><g transform="translate(0.5,0.5)"><path class="background" d="M0,0h0v0h0Z" style="pointer-events: none; fill: none;"></path><g><g class="mark-rule role-axis-tick" style="pointer-events: none;"><line transform="translate(12,0)" x2="0" y2="5" style="fill: none; stroke: #888; stroke-width: 1; opacity: 1;"></line><line transform="translate(39,0)" x2="0" y2="5" style="fill: none; stroke: #888; stroke-width: 1; opacity: 1;"></line><line transform="translate(66,0)" x2="0" y2="5" style="fill: none; stroke: #888; stroke-width: 1; opacity: 1;"></line></g><g class="mark-text role-axis-label" style="pointer-events: none;"><text text-anchor="end" transform="translate(12.333333333333336,7) rotate(270) translate(0,5)" style="font: 18px sans-serif; fill: #000; opacity: 1;">   orig</text><text text-anchor="end" transform="translate(39,7) rotate(270) translate(0,5)" style="font: 18px sans-serif; fill: #000; opacity: 1;"> pred</text><text text-anchor="end" transform="translate(65.66666666666667,7) rotate(270) translate(0,5)" style="font: 18px sans-serif; fill: #000; opacity: 1;">avg</text></g><g class="mark-rule role-axis-domain" style="pointer-events: none;"><line transform="translate(0,0)" x2="80" y2="0" style="fill: none; stroke: #888; stroke-width: 1; opacity: 1;"></line></g></g></g></g></g></g></g><g class="mark-group role-scope cell"><g transform="translate(0,0)"><path class="background" d="M0.5,0.5h80v250h-80Z" style="fill: none; stroke: #ddd;"></path><g><g class="mark-group role-axis"><g transform="translate(0.5,0.5)"><path class="background" d="M0,0h0v0h0Z" style="pointer-events: none; fill: none;"></path><g><g class="mark-rule role-axis-grid" style="pointer-events: none;"><line transform="translate(0,250)" x2="80" y2="0" style="fill: none; stroke: #ddd; stroke-width: 1; opacity: 1;"></line><line transform="translate(0,200)" x2="80" y2="0" style="fill: none; stroke: #ddd; stroke-width: 1; opacity: 1;"></line><line transform="translate(0,150)" x2="80" y2="0" style="fill: none; stroke: #ddd; stroke-width: 1; opacity: 1;"></line><line transform="translate(0,100)" x2="80" y2="0" style="fill: none; stroke: #ddd; stroke-width: 1; opacity: 1;"></line><line transform="translate(0,50)" x2="80" y2="0" style="fill: none; stroke: #ddd; stroke-width: 1; opacity: 1;"></line><line transform="translate(0,0)" x2="80" y2="0" style="fill: none; stroke: #ddd; stroke-width: 1; opacity: 1;"></line></g></g></g></g><g class="mark-rect role-mark child_marks"><path d="M1.3333333333333357,0.7238629828485728h24v249.27613701715143h-24Z" style="fill: #ccc;"></path><path d="M1.3333333333333357,0h24v0.7238629828485728h-24Z" style="fill: #333;"></path><path d="M1.3333333333333357,0.7238629828485728h24v0h-24Z" style="fill: #999;"></path><path d="M54.66666666666667,221.65730322114987h24v28.342696778850126h-24Z" style="fill: #ccc;"></path><path d="M54.66666666666667,218.67630018463473h24v0.7238629828486012h-24Z" style="fill: #333;"></path><path d="M54.66666666666667,219.40016316748333h24v2.2571400536665465h-24Z" style="fill: #999;"></path><path d="M28.000000000000004,250h24v0h-24Z" style="fill: #ccc;"></path><path d="M28.000000000000004,246.72943719354026h24v0.7238629828486012h-24Z" style="fill: #333;"></path><path d="M28.000000000000004,247.45330017638886h24v2.546699823611135h-24Z" style="fill: #999;"></path></g></g></g><g transform="translate(92,0)"><path class="background" d="M0.5,0.5h80v250h-80Z" style="fill: none; stroke: #ddd;"></path><g><g class="mark-group role-axis"><g transform="translate(0.5,0.5)"><path class="background" d="M0,0h0v0h0Z" style="pointer-events: none; fill: none;"></path><g><g class="mark-rule role-axis-grid" style="pointer-events: none;"><line transform="translate(0,250)" x2="80" y2="0" style="fill: none; stroke: #ddd; stroke-width: 1; opacity: 1;"></line><line transform="translate(0,200)" x2="80" y2="0" style="fill: none; stroke: #ddd; stroke-width: 1; opacity: 1;"></line><line transform="translate(0,150)" x2="80" y2="0" style="fill: none; stroke: #ddd; stroke-width: 1; opacity: 1;"></line><line transform="translate(0,100)" x2="80" y2="0" style="fill: none; stroke: #ddd; stroke-width: 1; opacity: 1;"></line><line transform="translate(0,50)" x2="80" y2="0" style="fill: none; stroke: #ddd; stroke-width: 1; opacity: 1;"></line><line transform="translate(0,0)" x2="80" y2="0" style="fill: none; stroke: #ddd; stroke-width: 1; opacity: 1;"></line></g></g></g></g><g class="mark-rect role-mark child_marks"><path d="M1.3333333333333357,0.029358980633304554h24v249.9706410193667h-24Z" style="fill: #ccc;"></path><path d="M1.3333333333333357,0h24v0.029358980633304554h-24Z" style="fill: #333;"></path><path d="M1.3333333333333357,0.029358980633304554h24v0h-24Z" style="fill: #999;"></path><path d="M54.66666666666667,154.91396622851389h24v95.08603377148611h-24Z" style="fill: #ccc;"></path><path d="M54.66666666666667,154.3079433472049h24v0.029358980633304554h-24Z" style="fill: #333;"></path><path d="M54.66666666666667,154.33730232783822h24v0.5766639006756691h-24Z" style="fill: #999;"></path><path d="M28.000000000000004,242.60509468600617h24v7.394905313993831h-24Z" style="fill: #ccc;"></path><path d="M28.000000000000004,241.67258159311652h24v0.029358980633304554h-24Z" style="fill: #333;"></path><path d="M28.000000000000004,241.70194057374982h24v0.9031541122563453h-24Z" style="fill: #999;"></path></g></g></g><g transform="translate(184,0)"><path class="background" d="M0.5,0.5h80v250h-80Z" style="fill: none; stroke: #ddd;"></path><g><g class="mark-group role-axis"><g transform="translate(0.5,0.5)"><path class="background" d="M0,0h0v0h0Z" style="pointer-events: none; fill: none;"></path><g><g class="mark-rule role-axis-grid" style="pointer-events: none;"><line transform="translate(0,250)" x2="80" y2="0" style="fill: none; stroke: #ddd; stroke-width: 1; opacity: 1;"></line><line transform="translate(0,200)" x2="80" y2="0" style="fill: none; stroke: #ddd; stroke-width: 1; opacity: 1;"></line><line transform="translate(0,150)" x2="80" y2="0" style="fill: none; stroke: #ddd; stroke-width: 1; opacity: 1;"></line><line transform="translate(0,100)" x2="80" y2="0" style="fill: none; stroke: #ddd; stroke-width: 1; opacity: 1;"></line><line transform="translate(0,50)" x2="80" y2="0" style="fill: none; stroke: #ddd; stroke-width: 1; opacity: 1;"></line><line transform="translate(0,0)" x2="80" y2="0" style="fill: none; stroke: #ddd; stroke-width: 1; opacity: 1;"></line></g></g></g></g><g class="mark-rect role-mark child_marks"><path d="M1.3333333333333357,0.1732585642209017h24v249.8267414357791h-24Z" style="fill: #ccc;"></path><path d="M1.3333333333333357,0h24v0.1732585642209017h-24Z" style="fill: #333;"></path><path d="M1.3333333333333357,0.1732585642209017h24v0h-24Z" style="fill: #999;"></path><path d="M54.66666666666667,140.63087777564766h24v109.36912222435234h-24Z" style="fill: #ccc;"></path><path d="M54.66666666666667,135.50543832159465h24v0.1732585642209017h-24Z" style="fill: #333;"></path><path d="M54.66666666666667,135.67869688581555h24v4.952180889832107h-24Z" style="fill: #999;"></path><path d="M28.000000000000004,221.71524470211799h24v28.284755297882015h-24Z" style="fill: #ccc;"></path><path d="M28.000000000000004,213.73097527065403h24v0.1732585642209017h-24Z" style="fill: #333;"></path><path d="M28.000000000000004,213.90423383487493h24v7.811010867243056h-24Z" style="fill: #999;"></path></g></g></g></g><g class="mark-group role-legend"><g transform="translate(283,0)"><path class="background" d="M0,0h223v65h-223Z" style="pointer-events: none; fill: none;"></path><g><g class="mark-group role-legend-entry"><g transform="translate(0,0)"><path class="background" d="M0,0h0v0h0Z" style="pointer-events: none; fill: none;"></path><g><g class="mark-symbol role-legend-symbol" style="pointer-events: none;"><path transform="translate(9,9)" d="M-5,-5h10v10h-10Z" style="fill: #333; stroke-width: 1.5; opacity: 1;"></path><path transform="translate(9,32)" d="M-5,-5h10v10h-10Z" style="fill: #999; stroke-width: 1.5; opacity: 1;"></path><path transform="translate(9,55)" d="M-5,-5h10v10h-10Z" style="fill: #ccc; stroke-width: 1.5; opacity: 1;"></path></g><g class="mark-text role-legend-label" style="pointer-events: none;"><text text-anchor="start" transform="translate(26,14)" style="font: 18px sans-serif; fill: #000; opacity: 1;">EIE (FC)</text><text text-anchor="start" transform="translate(26,37)" style="font: 18px sans-serif; fill: #000; opacity: 1;">EVA²</text><text text-anchor="start" transform="translate(26,60)" style="font: 18px sans-serif; fill: #000; opacity: 1;">Eyeriss (conv)</text></g></g></g></g></g></g></g></g></g></g></g></svg>